# xmcd
#
# Track frame offsets: 
#        150
#        20759
#        35364
#        52747
#        64324
#
# Disc length: 1210 seconds
#
# Revision: 0
# Processed by: cddbd v1.5.2PL0 Copyright (c) Steve Scherf et al.
# Submitted via: ExactAudioCopy v0.95b4
#
DISCID=3b04b805
DTITLE=Fever - Fever
DYEAR=2006
DGENRE=Blues
TTITLE0=Gypsy Soul
TTITLE1=Fever
TTITLE2=Keep Your Lamps Trimmed and Burning
TTITLE3=River of Jordan
TTITLE4=Oh Death
EXTD=
EXTT0=
EXTT1=
EXTT2=
EXTT3=
EXTT4=
PLAYORDER=
